<svg xmlns="http://www.w3.org/2000/svg" width="97" height="43" fill="none"><path fill="#111" d="M20.79 14.288c2.016-1.408 3.936-2.608 5.76-3.6a187.005 187.005 0 0 1 5.712-2.976c.128-.576.064-1.248-.192-2.016s-.8-1.36-1.632-1.776c-.832-.416-2-.544-3.504-.384-1.472.16-3.376.864-5.712 2.112.32 0 .656.08 1.008.24.384.16.72.352 1.008.576.288.224.496.48.624.768.128.288.128.56 0 .816A67.943 67.943 0 0 0 21.99 11.6c-.48 1.056-.88 1.952-1.2 2.688Zm11.328-2.64c-.576.256-1.52.736-2.832 1.44a81.33 81.33 0 0 0-4.224 2.448 69.722 69.722 0 0 0-4.224 2.88c-1.344.992-2.32 1.888-2.928 2.688a53.532 53.532 0 0 0-2.304 6.48c-.64 2.208-1.136 4.112-1.488 5.712-.096.384-.368.656-.816.816a3.58 3.58 0 0 1-1.44.096 3.448 3.448 0 0 1-1.296-.432c-.384-.224-.576-.528-.576-.912 0-.192.064-.528.192-1.008s.272-1.04.432-1.68c.192-.64.4-1.296.624-1.968l.624-1.872c-1.152.928-2.272 2.08-3.36 3.456-1.056 1.376-1.92 2.72-2.592 4.032-.672 1.28-1.072 2.416-1.2 3.408-.096.96.24 1.536 1.008 1.728 1.12.256 2.48.064 4.08-.576 1.632-.608 3.344-1.552 5.136-2.832 1.792-1.28 3.6-2.832 5.424-4.656a53.085 53.085 0 0 0 5.088-5.904 46.372 46.372 0 0 0 4.176-6.576c1.184-2.272 2.016-4.528 2.496-6.768ZM19.062 6.944c-.832.448-1.808 1.12-2.928 2.016a38.73 38.73 0 0 0-3.312 2.88 47.261 47.261 0 0 0-2.976 3.264c-.896 1.12-1.568 2.144-2.016 3.072-.416.928-.528 1.712-.336 2.352.224.608.896.928 2.016.96-.544.512-1.232.752-2.064.72a4.003 4.003 0 0 1-2.208-.768c-.672-.48-1.168-1.168-1.488-2.064-.32-.928-.256-2 .192-3.216.608-1.568 1.616-3.2 3.024-4.896a34.179 34.179 0 0 1 4.896-4.704 36.092 36.092 0 0 1 5.712-3.792C19.59 1.68 21.462.96 23.19.608a10.689 10.689 0 0 1 4.032-.096c1.376.224 2.656.608 3.84 1.152a11.49 11.49 0 0 1 3.12 1.968c.928.8 1.584 1.632 1.968 2.496 1.632-.512 3.04-.704 4.224-.576 1.216.128 2.176.432 2.88.912.736.48 1.2 1.088 1.392 1.824.192.736.112 1.456-.24 2.16.032-.448-.144-.864-.528-1.248-.352-.384-.864-.64-1.536-.768-.64-.16-1.424-.176-2.352-.048-.896.128-1.872.464-2.928 1.008.192 1.6-.016 3.472-.624 5.616-.576 2.112-1.488 4.32-2.736 6.624-1.248 2.272-2.8 4.544-4.656 6.816a41.624 41.624 0 0 1-6.144 6.192c-2.784 2.304-5.552 4.064-8.304 5.28-2.72 1.248-5.136 1.936-7.248 2.064-2.08.128-3.712-.304-4.896-1.296-1.152-.96-1.584-2.48-1.296-4.56.128-.928.416-1.968.864-3.12.48-1.152 1.152-2.416 2.016-3.792a23.69 23.69 0 0 1 2.16-2.976 32.02 32.02 0 0 1 2.496-2.592 66.018 66.018 0 0 1 2.688-2.448c.96-.8 1.92-1.616 2.88-2.448.096-.224.272-.672.528-1.344.288-.704.64-1.584 1.056-2.64.448-1.056.944-2.24 1.488-3.552l1.728-4.272Zm38.07 12.72c.096-.128.272-.176.528-.144.288 0 .544.064.768.192.256.128.448.304.576.528.16.192.176.4.048.624a165.918 165.918 0 0 1-2.112 3.552 55.194 55.194 0 0 1-2.496 3.792 33.25 33.25 0 0 1-2.688 3.408c-.928.992-1.84 1.696-2.736 2.112-.48.224-.992.304-1.536.24a4.584 4.584 0 0 1-1.44-.528 5.518 5.518 0 0 1-1.104-1.008c-.288-.416-.448-.816-.48-1.2-.064-.512 0-1.216.192-2.112.192-.896.4-1.712.624-2.448-.384.448-.8.976-1.248 1.584-.416.576-.88 1.2-1.392 1.872a45.086 45.086 0 0 1-1.632 2.016 19.312 19.312 0 0 1-1.728 1.872c-.288.288-.736.4-1.344.336a5.827 5.827 0 0 1-1.728-.48 5.668 5.668 0 0 1-1.488-1.056c-.448-.448-.64-.912-.576-1.392.096-1.216.384-2.512.864-3.888a26.072 26.072 0 0 1 1.776-3.984 25.908 25.908 0 0 1 2.256-3.648c.864-1.12 1.712-2.032 2.544-2.736.608-.48 1.168-.752 1.68-.816.512-.064 1.008 0 1.488.192.48.16.96.416 1.44.768.48.32.992.64 1.536.96.352-.384.688-.784 1.008-1.2.352-.448.72-.88 1.104-1.296.224-.288.576-.4 1.056-.336.512.064.992.24 1.44.528.448.288.8.64 1.056 1.056.288.384.32.752.096 1.104-1.088 1.856-1.968 3.504-2.64 4.944-.64 1.44-1.12 2.656-1.44 3.648-.288.992-.432 1.744-.432 2.256.032.512.16.768.384.768.64-.032 1.616-.896 2.928-2.592 1.312-1.696 2.928-4.192 4.848-7.488Zm-11.664 1.872c.096-.128.144-.352.144-.672 0-.32-.064-.608-.192-.864-.096-.288-.256-.464-.48-.528-.224-.064-.512.096-.864.48a14.776 14.776 0 0 0-2.064 2.496 37.517 37.517 0 0 0-1.632 2.832 27.218 27.218 0 0 0-1.104 2.592c-.288.768-.432 1.344-.432 1.728.352-.288.816-.752 1.392-1.392A47.822 47.822 0 0 0 42.108 26c.64-.8 1.264-1.6 1.872-2.4.608-.8 1.104-1.488 1.488-2.064Zm29.414-.24c.096-.224.256-.32.48-.288.256.032.496.112.72.24.256.128.464.288.624.48.16.16.224.288.192.384a39.023 39.023 0 0 1-1.68 3.072 35.448 35.448 0 0 1-2.112 3.264 25.37 25.37 0 0 1-2.304 2.784c-.768.832-1.488 1.424-2.16 1.776-.448.224-.96.32-1.536.288a7.53 7.53 0 0 1-1.68-.384 5.156 5.156 0 0 1-1.44-.768c-.416-.32-.656-.64-.72-.96-.128-.544-.128-1.28 0-2.208.128-.928.304-1.856.528-2.784.256-.928.496-1.76.72-2.496.256-.768.432-1.264.528-1.488-.64.544-1.36 1.328-2.16 2.352-.8 1.024-1.6 2.112-2.4 3.264a84.846 84.846 0 0 0-2.16 3.408 44.945 44.945 0 0 0-1.488 2.784c-.16.288-.48.448-.96.48-.48 0-.96-.08-1.44-.24a3.892 3.892 0 0 1-1.248-.672c-.384-.288-.528-.576-.432-.864.192-.768.48-1.776.864-3.024.384-1.28.832-2.656 1.344-4.128a82.903 82.903 0 0 1 1.728-4.608 36.904 36.904 0 0 1 2.112-4.368c.224-.448.576-.672 1.056-.672.512 0 1.008.112 1.488.336.48.224.864.512 1.152.864.32.352.432.656.336.912a42.25 42.25 0 0 1-1.056 2.064 51.88 51.88 0 0 1-1.056 1.92c-.32.576-.608 1.088-.864 1.536-.224.448-.352.752-.384.912a48.83 48.83 0 0 1 1.632-2.208c.608-.736 1.2-1.424 1.776-2.064a22.648 22.648 0 0 1 1.824-1.728c.608-.512 1.2-.944 1.776-1.296.384-.224.848-.288 1.392-.192a4.48 4.48 0 0 1 1.584.576c.48.288.848.64 1.104 1.056.288.384.352.768.192 1.152-.256.64-.592 1.44-1.008 2.4-.416.928-.816 1.92-1.2 2.976a46.74 46.74 0 0 0-1.008 2.976c-.288.96-.432 1.776-.432 2.448.608-.352 1.264-.848 1.968-1.488a19.723 19.723 0 0 0 2.064-2.208 29.418 29.418 0 0 0 2.016-2.688c.64-.96 1.216-1.92 1.728-2.88Zm12.19-13.392c1.345.256 2.385.496 3.12.72.8.288 1.36.64 1.68 1.056.193.288.4.688.625 1.2l.192.768c.064.256.112.496.144.72 0 .48-.144.752-.432.816-.48-.64-1.44-1.152-2.88-1.536-2.176-.48-3.824-.688-4.944-.624l-.768 1.152-.768 1.152a61.426 61.426 0 0 0-4.032 8.256c-1.12 2.912-2 5.728-2.64 8.448-.576 2.72-.752 4.912-.528 6.576.224 1.76.96 2.704 2.208 2.832-.48.416-1.184.56-2.112.432-.832-.096-1.696-.592-2.592-1.488-.896-.832-1.456-2.08-1.68-3.744-.128-1.248-.032-2.704.288-4.368.288-1.696.784-3.616 1.488-5.76a81.91 81.91 0 0 1 2.352-6.288 104.565 104.565 0 0 1 2.88-6.048c.064-.16.144-.304.24-.432.096-.16.176-.32.24-.48-.16 0-.368.016-.624.048-.224.032-.48.08-.768.144-.288.064-.56.128-.816.192a7.07 7.07 0 0 0-.768.24c-.256.064-.464.16-.624.288-.16.096-.272.176-.336.24-.192.32-.368.416-.528.288a2.163 2.163 0 0 1-.576-.624 1.878 1.878 0 0 0-.24-.432 3.404 3.404 0 0 1-.384-.912 1.488 1.488 0 0 0-.096-.288c-.128-.352-.096-.672.096-.96a.874.874 0 0 1 .288-.384c.128-.096.272-.192.432-.288.992-.384 2.08-.672 3.264-.864.576-.064 1.12-.128 1.632-.192.512-.064.992-.128 1.44-.192h.336c.128 0 .272-.016.432-.048 1.056-1.504 2.112-2.832 3.168-3.984.32-.32.784-.4 1.392-.24.512.096 1.056.4 1.632.912.544.512.864.96.96 1.344.096.448.016.752-.24.912-.256.32-.48.608-.672.864-.192.224-.352.416-.48.576Zm8.979 19.104c.256-.032.432.064.528.288.128.192.192.432.192.72 0 .256-.064.496-.192.72-.096.224-.224.336-.384.336a11.54 11.54 0 0 1-2.064.096c-.64-.032-1.392-.192-2.256-.48-.16.32-.368.768-.624 1.344-.256.544-.576 1.12-.96 1.728a12.16 12.16 0 0 1-1.296 1.728 5.723 5.723 0 0 1-1.632 1.296c-.512.288-1.168.384-1.968.288a9.876 9.876 0 0 1-2.352-.72 8.193 8.193 0 0 1-2.064-1.344c-.608-.544-.992-1.136-1.152-1.776-.256-.864-.304-1.808-.144-2.832.16-1.024.416-2.016.768-2.976.352-.992.784-1.888 1.296-2.688.48-.832.944-1.456 1.392-1.872.16-.16.336-.304.528-.432s.368-.272.528-.432a14.43 14.43 0 0 1-.24-2.016 3.758 3.758 0 0 1 .48-2.016c.288-.512.88-.832 1.776-.96.928-.16 1.888-.096 2.88.192 1.024.288 1.952.816 2.784 1.584.832.768 1.328 1.792 1.488 3.072.16 1.184.144 2.32-.048 3.408a47.074 47.074 0 0 1-.624 3.36c.288.192.752.336 1.392.432a5.79 5.79 0 0 0 1.968-.048Zm-12.192 5.52c1.248-.736 2.16-1.6 2.736-2.592a20.908 20.908 0 0 0 1.584-3.168 7.857 7.857 0 0 1-2.592-2.928c-.16.16-.368.592-.624 1.296-.256.704-.512 1.52-.768 2.448a19.568 19.568 0 0 0-.48 2.736c-.096.896-.048 1.632.144 2.208Zm5.04-8.496c.192-.448.32-.976.384-1.584a9.149 9.149 0 0 0 0-1.872 8.148 8.148 0 0 0-.24-1.68c-.096-.512-.208-.88-.336-1.104-.512.64-.752 1.52-.72 2.64.064 1.12.368 2.32.912 3.6Z"/></svg>